<?xml version="1.0" encoding="UTF-8" standalone="no"?>
<!-- Created with Inkscape (http://www.inkscape.org/) -->

<svg
   width="512"
   height="512"
   viewBox="0 0 135.46666 135.46667"
   version="1.1"
   id="svg5"
   inkscape:version="1.2.1 (9c6d41e410, 2022-07-14)"
   sodipodi:docname="Logo.svg"
   inkscape:export-filename="Logo.png"
   inkscape:export-xdpi="96"
   inkscape:export-ydpi="96"
   xmlns:inkscape="http://www.inkscape.org/namespaces/inkscape"
   xmlns:sodipodi="http://sodipodi.sourceforge.net/DTD/sodipodi-0.dtd"
   xmlns="http://www.w3.org/2000/svg"
   xmlns:svg="http://www.w3.org/2000/svg">
  <sodipodi:namedview
     id="namedview7"
     pagecolor="#ffffff"
     bordercolor="#000000"
     borderopacity="0.25"
     inkscape:showpageshadow="2"
     inkscape:pageopacity="0.0"
     inkscape:pagecheckerboard="0"
     inkscape:deskcolor="#d1d1d1"
     inkscape:document-units="mm"
     showgrid="false"
     inkscape:zoom="1.0444209"
     inkscape:cx="473.94684"
     inkscape:cy="205.8557"
     inkscape:window-width="1920"
     inkscape:window-height="1009"
     inkscape:window-x="-8"
     inkscape:window-y="-8"
     inkscape:window-maximized="1"
     inkscape:current-layer="layer1" />
  <defs
     id="defs2" />
  <g
     inkscape:label="Capa 1"
     inkscape:groupmode="layer"
     id="layer1">
    <rect
       style="fill:#ffffff;fill-opacity:1;stroke:none;stroke-width:3.8;stroke-dasharray:none;stroke-opacity:1;paint-order:markers stroke fill"
       id="rect21572"
       width="135.02498"
       height="134.51831"
       x="-2.6768074e-09"
       y="1.0133207"
       ry="12.666509" />
    <path
       style="fill:#ffffff;fill-opacity:1;stroke:none;stroke-width:3.8;stroke-dasharray:none;stroke-opacity:1;paint-order:markers stroke fill"
       d="M 37.999527,29.386299 43.572789,111.97194 95.505475,107.15866 89.93221,24.826357 Z"
       id="path5151" />
    <path
       style="fill:#b7b34f;fill-opacity:1;stroke:none;stroke-width:3.8;stroke-dasharray:none;stroke-opacity:1;paint-order:markers stroke fill"
       id="path1787-2"
       d="m 105.64583,27.119208 c 2.22252,-0.901505 19.58926,-11.488764 21.04937,-12.884053 L 109.40974,9.7667291 c -4.6162,5.1848179 -6.24197,8.4766289 -9.732016,14.5703909 z"
       sodipodi:nodetypes="ccccc" />
    <path
       style="fill:#b7b34f;fill-opacity:1;stroke:none;stroke-width:3.8;stroke-dasharray:none;stroke-opacity:1;paint-order:markers stroke fill"
       id="path1789-5"
       d="M 33.085262,25.023945 C 31.412272,23.22747 24.287174,12.077174 22.568972,10.324265 20.520842,9.7890671 10.467399,19.254194 9.6807103,21.244055 8.8490753,23.347601 27.839837,28.259971 29.247645,30.034013 Z"
       sodipodi:nodetypes="ccccc" />
    <path
       style="fill:#b7b34f;fill-opacity:1;stroke:none;stroke-width:3.8;stroke-dasharray:none;stroke-opacity:1;paint-order:markers stroke fill"
       id="path1791-7"
       d="m 5.9484823,66.930214 c -0.07714,0.155608 -0.277723,13.809033 -0.06826,16.881935 L 26.233061,76.656087 c 0,0 0.296872,-6.045105 0.225391,-5.93692 -4.700366,-1.436033 -15.6284,-2.610936 -20.5099737,-3.788953 z"
       sodipodi:nodetypes="ccccc" />
    <path
       style="fill:#b7b34f;fill-opacity:1;stroke:none;stroke-width:3.8;stroke-dasharray:none;stroke-opacity:1;paint-order:markers stroke fill"
       id="path1793-8"
       d="m 27.740726,109.28757 c -1.486852,1.8107 -11.024068,9.83557 -14.533122,13.11793 l 10.101707,7.84111 c 3.436611,-5.67308 8.569514,-14.83405 10.468209,-17.77957 z"
       sodipodi:nodetypes="ccccc" />
    <path
       style="fill:#b7b34f;fill-opacity:1;stroke:none;stroke-width:3.8;stroke-dasharray:none;stroke-opacity:1;paint-order:markers stroke fill"
       id="path1795-6"
       d="m 106.79298,114.54516 c 1.74903,3.38716 9.05585,13.51014 10.55832,16.12719 l 12.28449,-13.77364 c -6.58781,-2.74665 -18.33468,-7.17287 -20.54912,-8.61652 z"
       sodipodi:nodetypes="ccccc" />
    <path
       style="fill:#b7b34f;fill-opacity:1;stroke:none;stroke-width:3.8;stroke-dasharray:none;stroke-opacity:1;paint-order:markers stroke fill"
       id="path1797-5"
       d="m 109.30531,68.760756 c 1.41419,-0.454331 18.26045,-1.944467 19.7246,-2.160083 0.005,-3.553562 -1.32511,-9.910444 -0.92961,-14.0938 -1.54962,0.307399 -17.64834,9.534775 -19.16913,10.02604 z"
       sodipodi:nodetypes="ccccc" />
    <path
       style="fill:#fff807;fill-opacity:1;stroke:none;stroke-width:3.8;stroke-dasharray:none;stroke-opacity:1;paint-order:markers stroke fill"
       id="path1787"
       d="m 104.53309,25.637093 c 2.22252,-0.901505 19.58926,-11.488764 21.04937,-12.884053 L 108.297,8.2846147 c -4.6162,5.1848173 -6.24197,8.4766283 -9.732013,14.5703903 z"
       sodipodi:nodetypes="ccccc" />
    <path
       style="fill:#fff807;fill-opacity:1;stroke:none;stroke-width:3.8;stroke-dasharray:none;stroke-opacity:1;paint-order:markers stroke fill"
       id="path1789"
       d="M 31.972525,23.54183 C 30.299535,21.745355 23.174437,10.59506 21.456235,8.8421507 19.408105,8.3069526 9.3546622,17.772079 8.5679731,19.76194 7.7363384,21.865486 26.7271,26.777856 28.134908,28.551898 Z"
       sodipodi:nodetypes="ccccc" />
    <path
       style="fill:#fff807;fill-opacity:1;stroke:none;stroke-width:3.8;stroke-dasharray:none;stroke-opacity:1;paint-order:markers stroke fill"
       id="path1791"
       d="m 4.8357447,65.448099 c -0.07714,0.155608 -0.277723,13.809033 -0.068256,16.881935 l 20.352839,-7.156062 c 0,0 0.296872,-6.045105 0.225391,-5.93692 C 20.645353,67.801019 9.7173187,66.626116 4.8357447,65.448099 Z"
       sodipodi:nodetypes="ccccc" />
    <path
       style="fill:#fff807;fill-opacity:1;stroke:none;stroke-width:3.8;stroke-dasharray:none;stroke-opacity:1;paint-order:markers stroke fill"
       id="path1793"
       d="m 26.627989,107.80546 c -1.486852,1.8107 -11.024068,9.83557 -14.533122,13.11793 l 10.101707,7.84111 c 3.436611,-5.67308 8.569514,-14.83405 10.468209,-17.77957 z"
       sodipodi:nodetypes="ccccc" />
    <path
       style="fill:#fff807;fill-opacity:1;stroke:none;stroke-width:3.8;stroke-dasharray:none;stroke-opacity:1;paint-order:markers stroke fill"
       id="path1795"
       d="m 105.68024,113.06305 c 1.74903,3.38716 9.05585,13.51014 10.55832,16.12719 l 12.28449,-13.77364 c -6.58781,-2.74665 -18.33468,-7.17287 -20.54912,-8.61652 z"
       sodipodi:nodetypes="ccccc" />
    <path
       style="fill:#fff807;fill-opacity:1;stroke:none;stroke-width:3.8;stroke-dasharray:none;stroke-opacity:1;paint-order:markers stroke fill"
       id="path1797"
       d="m 108.19257,67.278641 c 1.41419,-0.454331 18.26045,-1.944467 19.7246,-2.160083 0.005,-3.553562 -1.32511,-9.910444 -0.92961,-14.0938 -1.54962,0.307399 -17.64834,9.534775 -19.16913,10.02604 z"
       sodipodi:nodetypes="ccccc" />
    <path
       style="fill:#848361;fill-opacity:1;stroke:none;stroke-width:3.8;stroke-dasharray:none;stroke-opacity:1;paint-order:markers stroke fill"
       d="M 60.950276,70.433244 74.630105,52.700131 94.009863,74.359862 93.249871,94.119614 c 0,0 -16.719791,-2.406636 -17.099785,-3.419956 -0.379995,-1.01332 -15.19981,-20.266414 -15.19981,-20.266414 z"
       id="path2635" />
    <path
       style="fill:#adac82;fill-opacity:1;stroke:none;stroke-width:3.8;stroke-dasharray:none;stroke-opacity:1;paint-order:markers stroke fill"
       d="m 40.406163,74.225739 18.366436,-27.486324 35.59289,45.472768 c 0,0 2.406637,16.593127 1.646645,16.593127 -0.759989,0 -53.705995,4.55994 -53.959326,3.67329 -0.25333,-0.88666 -1.646645,-38.252861 -1.646645,-38.252861 z"
       id="path2579" />
    <path
       id="rect234"
       style="fill:none;stroke:#000000;stroke-width:5.20706;paint-order:markers stroke fill"
       d="M 38.198969,28.806672 89.953287,24.888088 95.02724,107.5346 43.272922,111.45318 Z"
       sodipodi:nodetypes="ccccc" />
  </g>
</svg>
